<svg xmlns="http://www.w3.org/2000/svg" viewBox="0 0 512 512">
  <rect width="512" height="512" rx="64" fill="#3178c6" />
  <path fill="#fff" d="M317 407v50c8 4 18 7 29 9s23 3 36 3c12 0 24-1 35-4s21-6 29-12 15-13 20-22 7-20 7-33c0-9-1-17-4-24s-7-13-12-18-12-10-19-15-16-9-26-13c-7-3-13-6-19-8s-10-5-14-8-7-5-9-8-3-6-3-10c0-3 1-6 2-9s4-5 7-7 7-3 11-4 9-2 15-2c4 0 8 0 13 1s9 2 13 3 9 3 13 5 8 4 11 6v-47c-7-3-15-5-24-6s-19-2-30-2-23 1-34 4-20 7-28 12-15 13-19 22-7 20-7 32c0 15 4 28 13 38s22 19 39 26c8 3 15 6 21 9s12 6 16 9 8 7 10 11 4 8 4 13c0 3-1 6-2 9s-4 5-7 7-7 3-11 4-10 2-16 2c-11 0-21-2-32-6s-20-9-29-16zM274 152h-65v265h-56V152h-65v-46h186z" />
</svg>
